<?xml version="1.0" encoding="utf-8"?>
<svg version="1.1" id="svg2" x="0px" y="0px" viewBox="0 0 43.4 43.4" style="enable-background:new 0 0 43.4 43.4;" xmlns="http://www.w3.org/2000/svg">
  <path d="M 42.903 19.502 C 42.472 15.057 40.695 10.859 37.789 7.469 C 34.903 4.099 30.952 1.668 26.642 0.617 C 22.478 -0.4 18.004 -0.162 13.99 1.349 C 9.719 2.956 6.043 5.886 3.525 9.697 C 1.143 13.299 -0.092 17.648 0.005 21.962 C 0.102 26.306 1.526 30.615 4.097 34.121 C 4.765 35.031 5.496 35.898 6.295 36.697 C 9.423 39.816 13.5 41.956 17.863 42.682 C 22.192 43.399 26.628 42.813 30.613 40.968 C 34.676 39.089 38.123 35.855 40.293 31.947 C 42.385 28.184 43.319 23.788 42.903 19.502 Z M 31.122 16.815 C 30.652 17.284 30.177 17.759 29.708 18.229 L 19.708 28.228 C 19.137 28.799 18.227 28.765 17.655 28.228 C 17.418 28.005 17.181 27.783 16.943 27.56 C 15.258 25.981 13.568 24.398 11.883 22.819 C 11.292 22.262 11.365 21.328 11.883 20.766 C 12.425 20.175 13.384 20.248 13.936 20.766 C 14.174 20.989 14.411 21.212 14.648 21.434 C 15.985 22.684 17.316 23.923 18.653 25.177 C 18.793 25.042 18.929 24.901 19.069 24.761 C 21.117 22.713 23.166 20.664 25.214 18.616 C 26.497 17.333 27.785 16.05 29.068 14.762 C 29.645 14.19 30.545 14.229 31.122 14.762 C 31.698 15.294 31.659 16.277 31.122 16.815 Z" style="fill: rgb(112, 162, 255);"/>
</svg>